/* XPM */
static char *_71f90812d5046d3f469174b327262032sjhF2MOwcyhGien[] = {
/* columns rows colors chars-per-pixel */
"50 50 11 1 ",
"  c #554134",
". c #3C3C3C",
"X c #484848",
"o c gray29",
"O c #5D5D5D",
"+ c #B04616",
"@ c #F36B13",
"# c #FFB713",
"$ c #9D8576",
"% c #FEE549",
"& c #FDFBAD",
/* pixels */
"                                                  ",
"                                                  ",
"                                                  ",
"                                                  ",
"                                                  ",
"                                                  ",
"                                                  ",
"                                                  ",
"                                                  ",
"                                                  ",
"                                                  ",
"                                                  ",
"                                                  ",
"                                                  ",
"                                                  ",
"                                                  ",
"                                                  ",
"                                                  ",
"                                                  ",
"                                                  ",
"                                                  ",
"                                                  ",
"                                                  ",
"                           +                      ",
"                           @+                     ",
"                      +   @%#                     ",
"                     +@   @%%#                    ",
"                     +@@   %%%#                   ",
"                     @#@    %                     ",
"                     #%@                          ",
"                      %%    #                     ",
"                     %%%   #%                     ",
"                    %%%%   %%                     ",
"                    %%%%  %%%                     ",
"                 +   %+%  %%%% +                  ",
"                +@   +%%  %#%% @+                 ",
"                @#@  %%% %%&%% #@                 ",
"                @%   %#%%%%&%% %#@                ",
"                 %%%@%&&%%&&%% %#@                ",
"                  %%%%%&&+&&&%%%%@                ",
"                  %@%&%&&&&&#&&%%@                ",
"                  @%%&&&&&&&&&%%                  ",
"                  %%%#&&&#&&&&%                   ",
"                 O$%%%%&&&&&+%%$O                 ",
"                OO$%%%%%&&&&%%%$OO                ",
"                oOO$%%%%%&%%%%$OOo                ",
"                ooOO$o$$oo$$o$OOoo                ",
"                 ooOOoOOooOOoOOoo                 ",
"                  ooo..o..o..ooo                  ",
"                                                  "
};
