/* XPM */
static char *bfcce54306914b1caa1e88809904ba7bfgp3JbcgYiD7x7Ws[] = {
/* columns rows colors chars-per-pixel */
"50 50 3 1 ",
"  c #554134",
". c #614B3B",
"X c #725949",
/* pixels */
"..............................X...................",
".....................................       ..XX..",
"......................     .......     .......XX..",
" ....X....   ....     ......................X.....",
"     .............................................",
"........................XX...     ............X...",
"........................XX......        ..........",
"..........X...     ...............................",
".........   ......    .........X..................",
"........  ...........    ......XX.......     .....",
"..       ..........................X...........   ",
"...X.......................  ................  ...",
"..XX...............X.      .......................",
"..................................................",
"..................................................",
"     ......X...  ..............X........     .....",
"....      .......       .........         ........",
".............................X....................",
".X..................X.............................",
".......X...........................X..............",
"...X.....................    .........  ..X...    ",
"...XX...     ...XX..      .............   ........",
"...      .......XX................................",
".    .X...........................................",
"...........................X....     ............ ",
".............      .......XX.......     ..........",
"X................      ..........XX...............",
"....   ...X..........     .......XX...............",
"................................      ...XX....X..",
".............X...............   ..................",
".........    ............    .....................",
"           ............  ......X..................",
"..................................................",
"......................................     .......",
"...................................      .........",
" ....X....   ......X..............................",
"     ........     ......   ..   ..............X...",
"...............................       ............",
"........................XX................X.......",
"..........X.............X......................   ",
".........   .........   .....................    .",
"........  ..............   ..........XX...........",
"..       .....................X......XX...........",
"...X............ ...X...........      ........X...",
"..XX.............   .....X..........       .....  ",
"..................................................",
"........X.........................................",
"..................................................",
"..............X...................................",
".....................       ..XX..       .......X."
};
