/* XPM */
static char *_b792132724a4c59b8b5552b2863215f8LXXddlFoOF1TiS8[] = {
/* columns rows colors chars-per-pixel */
"50 50 19 1 ",
"  c #554124",
". c #0D0F0F",
"X c #071213",
"o c #121515",
"O c #141818",
"+ c #3A1A13",
"@ c #202728",
"# c #33383A",
"$ c #722E15",
"% c #612D3F",
"& c #566165",
"* c #6C767A",
"= c #9B0C2E",
"- c #86593B",
"; c #B0B08F",
": c #9FBBBA",
"> c #DEAA87",
", c #EFEFCB",
"< c #F1F2CB",
/* pixels */
"                                                  ",
"                                                  ",
"                         : :                      ",
"                    *::##:#:#:                    ",
"                    ***#**#*#*                    ",
"                    #****:***#                    ",
"                     oo#:<::                      ",
"                     o##oo:o                      ",
"                     oo#oo*o                      ",
"                     o##oooo                      ",
"                      o#oooo                      ",
"                      ##****                      ",
"                    #*#o####                      ",
"                 *::##*#oooo:                     ",
"                 ***:o#*###o#:                    ",
"                ****:o#****#**#                   ",
"                ****:o#:::<#<:#                   ",
"                ***##o#::::#::#.                  ",
"                 ##**o#*:::#::#.                  ",
"                 ***:o#***:#:*#OO                 ",
"                 ***:oo#**:#:*#OO                 ",
"                #*::oooo#######OO                 ",
"                *###oooo##*:*#OO.O                ",
"                ***  o##o#####O.OO                ",
"                ***  +oo##*:*# OO.                ",
"                **:  +$#o#####$ .--               ",
"                ::: +++$$$$$$$+ ---               ",
"                ###X++++++++++$ ---               ",
"                 >>X+++$+$$$$$$                   ",
"                XX>+++++$$$$$$$                   ",
"                ==X++++$$$$$$$$$                  ",
"                ,=X++++$$$$$$$$$                  ",
"               %%;=+++$$$$$$$$$$                  ",
"               ,;%=+++$$$$$$$$$$                  ",
"              ,,;%=+++$$$$$$$$$$                  ",
"              ,; %=+++$$$$$$$$$$                  ",
"             ,,; %=&++$$$$$$$$$$                  ",
"             ,;  %=&&++$$++OOO$                   ",
"            ,,;   %&&& +++OOOO                    ",
"            ,;    %:&&   OOOOO                    ",
"           ,,;    @@:&   OOOO                     ",
"           ,;     :&@     O..                     ",
"          ,,;     :&      .OO                     ",
"          ,;      &&       OO                     ",
"         ,,;      &&       OO                     ",
"         ,;      @@@       ..                     ",
"        ,,;      &@@       ...                    ",
"        ,;      @@@@       ....                   ",
"                @@@@       ....                   ",
"                                                  "
};
