/* XPM */
static char *_82b01bcf88943c4f6487f62b20347ed3lVS7e8O5tsmyPat[] = {
/* columns rows colors chars-per-pixel */
"50 50 6 1 ",
"  c #191B1E",
". c #211E20",
"X c #393232",
"o c #524437",
"O c #685F4C",
"+ c #776E62",
/* pixels */
"                                                  ",
"ooOOOOOO+OO++++++  oO++++++OOOOooO+++ ++++++OOOOo ",
"o.....XoooXXXXXX+ o+OXXXXXoXXX...oXX+ +ooooX....o ",
"O.ooooooooooooX.O +OoooooooooooooooXO OooooooooXX ",
"O.ooooooooooooo.O +XoooooooooooooooXO OooooooooXX ",
"OXooooooooooooo.O +.oooooooooooooooXO OooooooooXo ",
"Ooooooooooooooo.o O.ooooooooooooooooo oooooooooXo ",
"Ooooooooooooooo.o O.oooooooooooooooXo ooooooooooO ",
"ooooooooooooooo.o o.oooooooooooooooXo oXooooooooO ",
"oooooooooooooooXo o.ooooooooooooooo.o oXooooooooO ",
"oXoooooooooooooXo OXooooooooooooooo.o oXooooooooO ",
"OXooooooooooooo.O OoooooooooooooooX.o o.ooooooooO ",
"+.XXXXXXooooo.XX+ +ooX.........XX...O oXXXXXooooO ",
"OO++++OOoooOOO+++ ++++OOOooOOoooOOOO+ ooooo+O++++ ",
"                                                  ",
"O+++++++ ++++++OOOOOOO++++++ ++++++OO+++ X..X++++o",
"ooX....+ +XXXXXXXX.........O +oXXXXXXXX+ ..X++Oooo",
"oooooX.+ +Xoooooooooooooo+.+ +ooooooooo+ X++Oooooo",
"oooooo.O +oooooooooooooooO.+ +oooooooooO Ooooooooo",
"oooooo.+ +oooooooooooooooo.+ +oooooooooo Ooooooooo",
"oooooo.+ OXoooooooooooooooXO +oooooooooo ooooooooo",
"ooooooXO o.oooooooooooooooXO +oooooooooO Ooooooooo",
"ooooooX+ OXooooooooooooooooO O.ooooooooO Ooooooooo",
"oooooo.+ +.oooooooooooooooo+ +.ooooooooO +oooooooo",
"oooX.Xo+ +....oXXoooooooooo+ +.XXXXXXo++ +Oooooooo",
"OOO+++++ OOO++++++OoooOO+O++ +++++oO+++. .++OOOOOO",
"                                                  ",
"+O++++++++OX.XO++ +++OOOooooO+++OOOOo +++++++++oo ",
"OXXXXXXXXXX.XXX.O O.XX..XX..XooooX..O +XXXXoooooo ",
"+Xooooooooo.ooooO +Xooooooooooooooo.+ +.ooooooooo ",
"+oooooooooo.ooooO +XoooooooooooooooX+ +Xooooooooo ",
"+XoooooooooXooooO OooooooooooooooooX+ +Xooooooooo ",
"+XoooooooooXooooO +ooooooooooooooooX+ OXooooooo.O ",
"+XooooooooooooooO +XoooooooooooooooX+ Ooooooooo.+ ",
"+ooooooooooooooo+ ooXooooooooooooooXO ooooooooo.+ ",
"+oooooooooooooooO .OXoooooooooooooo.+ ooooooooo.+ ",
"o.ooooooooooooXX+ X.+.XoooooooXXXXX.+ ooooXXXXXX+ ",
"ooOOO+OOooooXo+++  .Oo++++++ooooO+Oo+ oooOOOOOO++ ",
"                                                  ",
"ooO++++O ++++OOOoooooO++OoX. O++++OOoooooooooooooo",
"ooXXX..+ +....XoXXXXX..X.o+. OX.....XXXXX.......XX",
"oooooo.+ +.ooooooooooooooX+X OXooooooooooooooooooo",
"oooooo.+ +.ooooooooooooooXOX OXooooooooooooooooooo",
"oooooo.O OXoooooooooooooooOX Ooooooooooooooooooooo",
"oooooo.O OXooooooooooooooooO Ooooooooooooooooooooo",
"ooooooXO ooooooooooooooooooO oXooooooooooooooooooo",
"oooooo.+ oXooooooooooooooo.O oXooooooooooooooooooo",
"oooooX.+ O.ooooooooooooooo.O O.ooooooooooooooooooo",
".......+ +.XX.....XoooX..XXo +...XoXX.....XX......",
"++++++++ +OOOOOOOO++oooOOOOO ++O+OOooOOOOOOOOOOOOO"
};
